<mxfile host="app.diagrams.net" modified="2023-02-14T11:59:24.161Z" agent="5.0 (Windows NT 10.0; Win64; x64) AppleWebKit/537.36 (KHTML, like Gecko) Chrome/109.0.0.0 Safari/537.36" etag="Favo31gNsKQpvujLv8xa" version="20.8.18" type="github" pages="2">
  <diagram name="第 1 页" id="2Yasak611m-rOJfyYExu">
    <mxGraphModel dx="1434" dy="764" grid="1" gridSize="10" guides="1" tooltips="1" connect="1" arrows="1" fold="1" page="1" pageScale="1" pageWidth="827" pageHeight="1169" math="0" shadow="0">
      <root>
        <mxCell id="0" />
        <mxCell id="1" parent="0" />
        <mxCell id="usgx4o6tzSP_zSgprokr-4" value="" style="edgeStyle=orthogonalEdgeStyle;rounded=0;orthogonalLoop=1;jettySize=auto;html=1;" edge="1" parent="1" source="usgx4o6tzSP_zSgprokr-1" target="usgx4o6tzSP_zSgprokr-3">
          <mxGeometry relative="1" as="geometry" />
        </mxCell>
        <mxCell id="usgx4o6tzSP_zSgprokr-1" value="sip + dip" style="rounded=1;whiteSpace=wrap;html=1;" vertex="1" parent="1">
          <mxGeometry x="80" y="240" width="120" height="40" as="geometry" />
        </mxCell>
        <mxCell id="usgx4o6tzSP_zSgprokr-6" value="" style="edgeStyle=orthogonalEdgeStyle;rounded=0;orthogonalLoop=1;jettySize=auto;html=1;" edge="1" parent="1" source="usgx4o6tzSP_zSgprokr-3" target="usgx4o6tzSP_zSgprokr-5">
          <mxGeometry relative="1" as="geometry" />
        </mxCell>
        <mxCell id="usgx4o6tzSP_zSgprokr-3" value="hash value" style="rounded=1;whiteSpace=wrap;html=1;" vertex="1" parent="1">
          <mxGeometry x="240" y="240" width="120" height="40" as="geometry" />
        </mxCell>
        <mxCell id="usgx4o6tzSP_zSgprokr-5" value="#4" style="rounded=1;whiteSpace=wrap;html=1;" vertex="1" parent="1">
          <mxGeometry x="440" y="240" width="120" height="40" as="geometry" />
        </mxCell>
        <mxCell id="usgx4o6tzSP_zSgprokr-8" value="#5" style="rounded=1;whiteSpace=wrap;html=1;" vertex="1" parent="1">
          <mxGeometry x="440" y="280" width="120" height="40" as="geometry" />
        </mxCell>
        <mxCell id="usgx4o6tzSP_zSgprokr-9" value="#6" style="rounded=1;whiteSpace=wrap;html=1;" vertex="1" parent="1">
          <mxGeometry x="440" y="320" width="120" height="40" as="geometry" />
        </mxCell>
        <mxCell id="usgx4o6tzSP_zSgprokr-10" value="#7" style="rounded=1;whiteSpace=wrap;html=1;" vertex="1" parent="1">
          <mxGeometry x="440" y="360" width="120" height="40" as="geometry" />
        </mxCell>
        <mxCell id="usgx4o6tzSP_zSgprokr-11" value="#3" style="rounded=1;whiteSpace=wrap;html=1;" vertex="1" parent="1">
          <mxGeometry x="440" y="200" width="120" height="40" as="geometry" />
        </mxCell>
        <mxCell id="usgx4o6tzSP_zSgprokr-12" value="#2" style="rounded=1;whiteSpace=wrap;html=1;fillColor=#f8cecc;strokeColor=#b85450;" vertex="1" parent="1">
          <mxGeometry x="440" y="160" width="120" height="40" as="geometry" />
        </mxCell>
        <mxCell id="usgx4o6tzSP_zSgprokr-13" value="#8" style="rounded=1;whiteSpace=wrap;html=1;" vertex="1" parent="1">
          <mxGeometry x="440" y="400" width="120" height="40" as="geometry" />
        </mxCell>
        <mxCell id="usgx4o6tzSP_zSgprokr-14" value="#1" style="rounded=1;whiteSpace=wrap;html=1;" vertex="1" parent="1">
          <mxGeometry x="440" y="120" width="120" height="40" as="geometry" />
        </mxCell>
        <mxCell id="usgx4o6tzSP_zSgprokr-15" value="#2" style="rounded=1;whiteSpace=wrap;html=1;fillColor=#d5e8d4;strokeColor=#82b366;" vertex="1" parent="1">
          <mxGeometry x="640" y="120" width="120" height="40" as="geometry" />
        </mxCell>
        <mxCell id="usgx4o6tzSP_zSgprokr-27" style="edgeStyle=orthogonalEdgeStyle;rounded=0;orthogonalLoop=1;jettySize=auto;html=1;entryX=1;entryY=0.5;entryDx=0;entryDy=0;" edge="1" parent="1" source="usgx4o6tzSP_zSgprokr-17" target="usgx4o6tzSP_zSgprokr-12">
          <mxGeometry relative="1" as="geometry" />
        </mxCell>
        <mxCell id="usgx4o6tzSP_zSgprokr-17" value="#3" style="rounded=1;whiteSpace=wrap;html=1;fillColor=#e1d5e7;strokeColor=#9673a6;" vertex="1" parent="1">
          <mxGeometry x="640" y="160" width="120" height="40" as="geometry" />
        </mxCell>
        <mxCell id="usgx4o6tzSP_zSgprokr-18" value="#4" style="rounded=1;whiteSpace=wrap;html=1;fillColor=#ffe6cc;strokeColor=#d79b00;" vertex="1" parent="1">
          <mxGeometry x="640" y="200" width="120" height="40" as="geometry" />
        </mxCell>
        <mxCell id="usgx4o6tzSP_zSgprokr-19" value="#5" style="rounded=1;whiteSpace=wrap;html=1;" vertex="1" parent="1">
          <mxGeometry x="640" y="240" width="120" height="40" as="geometry" />
        </mxCell>
        <mxCell id="usgx4o6tzSP_zSgprokr-20" value="#6" style="rounded=1;whiteSpace=wrap;html=1;" vertex="1" parent="1">
          <mxGeometry x="640" y="280" width="120" height="40" as="geometry" />
        </mxCell>
        <mxCell id="usgx4o6tzSP_zSgprokr-21" value="#7" style="rounded=1;whiteSpace=wrap;html=1;" vertex="1" parent="1">
          <mxGeometry x="640" y="320" width="120" height="40" as="geometry" />
        </mxCell>
        <mxCell id="usgx4o6tzSP_zSgprokr-22" value="#8" style="rounded=1;whiteSpace=wrap;html=1;" vertex="1" parent="1">
          <mxGeometry x="640" y="360" width="120" height="40" as="geometry" />
        </mxCell>
        <mxCell id="usgx4o6tzSP_zSgprokr-23" value="#1" style="rounded=1;whiteSpace=wrap;html=1;" vertex="1" parent="1">
          <mxGeometry x="640" y="400" width="120" height="40" as="geometry" />
        </mxCell>
        <mxCell id="usgx4o6tzSP_zSgprokr-24" value="table" style="text;html=1;strokeColor=none;fillColor=none;align=center;verticalAlign=middle;whiteSpace=wrap;rounded=0;" vertex="1" parent="1">
          <mxGeometry x="470" y="70" width="60" height="30" as="geometry" />
        </mxCell>
        <mxCell id="usgx4o6tzSP_zSgprokr-25" value="backup table" style="text;html=1;strokeColor=none;fillColor=none;align=center;verticalAlign=middle;whiteSpace=wrap;rounded=0;" vertex="1" parent="1">
          <mxGeometry x="650" y="70" width="90" height="30" as="geometry" />
        </mxCell>
        <mxCell id="usgx4o6tzSP_zSgprokr-32" style="edgeStyle=orthogonalEdgeStyle;rounded=0;orthogonalLoop=1;jettySize=auto;html=1;entryX=1;entryY=0.5;entryDx=0;entryDy=0;" edge="1" parent="1" source="usgx4o6tzSP_zSgprokr-28" target="usgx4o6tzSP_zSgprokr-17">
          <mxGeometry relative="1" as="geometry" />
        </mxCell>
        <mxCell id="usgx4o6tzSP_zSgprokr-28" value="#4" style="rounded=1;whiteSpace=wrap;html=1;fillColor=#ffe6cc;strokeColor=#d79b00;" vertex="1" parent="1">
          <mxGeometry x="840" y="160" width="120" height="40" as="geometry" />
        </mxCell>
        <mxCell id="usgx4o6tzSP_zSgprokr-34" style="edgeStyle=orthogonalEdgeStyle;rounded=0;orthogonalLoop=1;jettySize=auto;html=1;entryX=1;entryY=0.5;entryDx=0;entryDy=0;" edge="1" parent="1" source="usgx4o6tzSP_zSgprokr-33" target="usgx4o6tzSP_zSgprokr-15">
          <mxGeometry relative="1" as="geometry" />
        </mxCell>
        <mxCell id="usgx4o6tzSP_zSgprokr-33" value="#3" style="rounded=1;whiteSpace=wrap;html=1;fillColor=#e1d5e7;strokeColor=#9673a6;" vertex="1" parent="1">
          <mxGeometry x="840" y="120" width="120" height="40" as="geometry" />
        </mxCell>
        <mxCell id="usgx4o6tzSP_zSgprokr-35" value="replace" style="text;html=1;strokeColor=none;fillColor=none;align=center;verticalAlign=middle;whiteSpace=wrap;rounded=0;" vertex="1" parent="1">
          <mxGeometry x="855" y="70" width="90" height="30" as="geometry" />
        </mxCell>
      </root>
    </mxGraphModel>
  </diagram>
  <diagram id="DhAQXMNvCX8F0I5oHEee" name="第 2 页">
    <mxGraphModel dx="1434" dy="764" grid="1" gridSize="10" guides="1" tooltips="1" connect="1" arrows="1" fold="1" page="1" pageScale="1" pageWidth="827" pageHeight="1169" math="0" shadow="0">
      <root>
        <mxCell id="0" />
        <mxCell id="1" parent="0" />
        <mxCell id="tdvNlTrXB_pgQllaXvr8-1" value="" style="edgeStyle=orthogonalEdgeStyle;rounded=0;orthogonalLoop=1;jettySize=auto;html=1;" edge="1" parent="1" source="tdvNlTrXB_pgQllaXvr8-2" target="tdvNlTrXB_pgQllaXvr8-4">
          <mxGeometry relative="1" as="geometry" />
        </mxCell>
        <mxCell id="tdvNlTrXB_pgQllaXvr8-2" value="sip + dip" style="rounded=1;whiteSpace=wrap;html=1;" vertex="1" parent="1">
          <mxGeometry x="80" y="240" width="120" height="40" as="geometry" />
        </mxCell>
        <mxCell id="tdvNlTrXB_pgQllaXvr8-3" value="" style="edgeStyle=orthogonalEdgeStyle;rounded=0;orthogonalLoop=1;jettySize=auto;html=1;" edge="1" parent="1" source="tdvNlTrXB_pgQllaXvr8-4" target="tdvNlTrXB_pgQllaXvr8-5">
          <mxGeometry relative="1" as="geometry" />
        </mxCell>
        <mxCell id="tdvNlTrXB_pgQllaXvr8-4" value="hash value" style="rounded=1;whiteSpace=wrap;html=1;" vertex="1" parent="1">
          <mxGeometry x="240" y="240" width="120" height="40" as="geometry" />
        </mxCell>
        <mxCell id="tdvNlTrXB_pgQllaXvr8-5" value="#4" style="rounded=1;whiteSpace=wrap;html=1;" vertex="1" parent="1">
          <mxGeometry x="440" y="240" width="120" height="40" as="geometry" />
        </mxCell>
        <mxCell id="tdvNlTrXB_pgQllaXvr8-6" value="#5" style="rounded=1;whiteSpace=wrap;html=1;" vertex="1" parent="1">
          <mxGeometry x="440" y="280" width="120" height="40" as="geometry" />
        </mxCell>
        <mxCell id="tdvNlTrXB_pgQllaXvr8-7" value="#6" style="rounded=1;whiteSpace=wrap;html=1;" vertex="1" parent="1">
          <mxGeometry x="440" y="320" width="120" height="40" as="geometry" />
        </mxCell>
        <mxCell id="tdvNlTrXB_pgQllaXvr8-8" value="#7" style="rounded=1;whiteSpace=wrap;html=1;" vertex="1" parent="1">
          <mxGeometry x="440" y="360" width="120" height="40" as="geometry" />
        </mxCell>
        <mxCell id="tdvNlTrXB_pgQllaXvr8-9" value="#3" style="rounded=1;whiteSpace=wrap;html=1;" vertex="1" parent="1">
          <mxGeometry x="440" y="200" width="120" height="40" as="geometry" />
        </mxCell>
        <mxCell id="tdvNlTrXB_pgQllaXvr8-10" value="#3" style="rounded=1;whiteSpace=wrap;html=1;fillColor=#f8cecc;strokeColor=#b85450;" vertex="1" parent="1">
          <mxGeometry x="440" y="160" width="120" height="40" as="geometry" />
        </mxCell>
        <mxCell id="tdvNlTrXB_pgQllaXvr8-11" value="#8" style="rounded=1;whiteSpace=wrap;html=1;" vertex="1" parent="1">
          <mxGeometry x="440" y="400" width="120" height="40" as="geometry" />
        </mxCell>
        <mxCell id="tdvNlTrXB_pgQllaXvr8-12" value="#1" style="rounded=1;whiteSpace=wrap;html=1;" vertex="1" parent="1">
          <mxGeometry x="440" y="120" width="120" height="40" as="geometry" />
        </mxCell>
        <mxCell id="tdvNlTrXB_pgQllaXvr8-13" value="#3" style="rounded=1;whiteSpace=wrap;html=1;fillColor=#f8cecc;strokeColor=#b85450;" vertex="1" parent="1">
          <mxGeometry x="640" y="120" width="120" height="40" as="geometry" />
        </mxCell>
        <mxCell id="tdvNlTrXB_pgQllaXvr8-15" value="#4" style="rounded=1;whiteSpace=wrap;html=1;fillColor=#ffe6cc;strokeColor=#d79b00;" vertex="1" parent="1">
          <mxGeometry x="640" y="160" width="120" height="40" as="geometry" />
        </mxCell>
        <mxCell id="tdvNlTrXB_pgQllaXvr8-16" value="#4" style="rounded=1;whiteSpace=wrap;html=1;fillColor=#ffe6cc;strokeColor=#d79b00;" vertex="1" parent="1">
          <mxGeometry x="640" y="200" width="120" height="40" as="geometry" />
        </mxCell>
        <mxCell id="tdvNlTrXB_pgQllaXvr8-17" value="#5" style="rounded=1;whiteSpace=wrap;html=1;" vertex="1" parent="1">
          <mxGeometry x="640" y="240" width="120" height="40" as="geometry" />
        </mxCell>
        <mxCell id="tdvNlTrXB_pgQllaXvr8-18" value="#6" style="rounded=1;whiteSpace=wrap;html=1;" vertex="1" parent="1">
          <mxGeometry x="640" y="280" width="120" height="40" as="geometry" />
        </mxCell>
        <mxCell id="tdvNlTrXB_pgQllaXvr8-19" value="#7" style="rounded=1;whiteSpace=wrap;html=1;" vertex="1" parent="1">
          <mxGeometry x="640" y="320" width="120" height="40" as="geometry" />
        </mxCell>
        <mxCell id="tdvNlTrXB_pgQllaXvr8-20" value="#8" style="rounded=1;whiteSpace=wrap;html=1;" vertex="1" parent="1">
          <mxGeometry x="640" y="360" width="120" height="40" as="geometry" />
        </mxCell>
        <mxCell id="tdvNlTrXB_pgQllaXvr8-21" value="#1" style="rounded=1;whiteSpace=wrap;html=1;" vertex="1" parent="1">
          <mxGeometry x="640" y="400" width="120" height="40" as="geometry" />
        </mxCell>
        <mxCell id="tdvNlTrXB_pgQllaXvr8-22" value="table" style="text;html=1;strokeColor=none;fillColor=none;align=center;verticalAlign=middle;whiteSpace=wrap;rounded=0;" vertex="1" parent="1">
          <mxGeometry x="470" y="70" width="60" height="30" as="geometry" />
        </mxCell>
        <mxCell id="tdvNlTrXB_pgQllaXvr8-23" value="backup table" style="text;html=1;strokeColor=none;fillColor=none;align=center;verticalAlign=middle;whiteSpace=wrap;rounded=0;" vertex="1" parent="1">
          <mxGeometry x="650" y="70" width="90" height="30" as="geometry" />
        </mxCell>
        <mxCell id="tdvNlTrXB_pgQllaXvr8-24" style="edgeStyle=orthogonalEdgeStyle;rounded=0;orthogonalLoop=1;jettySize=auto;html=1;entryX=1;entryY=0.5;entryDx=0;entryDy=0;" edge="1" parent="1" target="tdvNlTrXB_pgQllaXvr8-15">
          <mxGeometry relative="1" as="geometry">
            <mxPoint x="840" y="180" as="sourcePoint" />
          </mxGeometry>
        </mxCell>
        <mxCell id="tdvNlTrXB_pgQllaXvr8-26" style="edgeStyle=orthogonalEdgeStyle;rounded=0;orthogonalLoop=1;jettySize=auto;html=1;entryX=1;entryY=0.5;entryDx=0;entryDy=0;" edge="1" parent="1" source="tdvNlTrXB_pgQllaXvr8-27" target="tdvNlTrXB_pgQllaXvr8-13">
          <mxGeometry relative="1" as="geometry" />
        </mxCell>
        <mxCell id="tdvNlTrXB_pgQllaXvr8-27" value="#2" style="rounded=1;whiteSpace=wrap;html=1;fillColor=#d5e8d4;strokeColor=#82b366;" vertex="1" parent="1">
          <mxGeometry x="840" y="120" width="120" height="40" as="geometry" />
        </mxCell>
        <mxCell id="tdvNlTrXB_pgQllaXvr8-28" value="replace" style="text;html=1;strokeColor=none;fillColor=none;align=center;verticalAlign=middle;whiteSpace=wrap;rounded=0;" vertex="1" parent="1">
          <mxGeometry x="855" y="70" width="90" height="30" as="geometry" />
        </mxCell>
        <mxCell id="tdvNlTrXB_pgQllaXvr8-29" value="#3" style="rounded=1;whiteSpace=wrap;html=1;fillColor=#f8cecc;strokeColor=#b85450;" vertex="1" parent="1">
          <mxGeometry x="840" y="160" width="120" height="40" as="geometry" />
        </mxCell>
        <mxCell id="tdvNlTrXB_pgQllaXvr8-31" style="rounded=0;orthogonalLoop=1;jettySize=auto;html=1;exitX=0.5;exitY=1;exitDx=0;exitDy=0;entryX=1;entryY=0.5;entryDx=0;entryDy=0;" edge="1" parent="1" source="tdvNlTrXB_pgQllaXvr8-30" target="tdvNlTrXB_pgQllaXvr8-10">
          <mxGeometry relative="1" as="geometry" />
        </mxCell>
        <mxCell id="tdvNlTrXB_pgQllaXvr8-30" value="#2" style="rounded=1;whiteSpace=wrap;html=1;fillColor=#d5e8d4;strokeColor=#82b366;" vertex="1" parent="1">
          <mxGeometry x="540" y="10" width="120" height="40" as="geometry" />
        </mxCell>
      </root>
    </mxGraphModel>
  </diagram>
</mxfile>
